<svg width="490.667" height="490.667" xmlns="http://www.w3.org/2000/svg">

 <g>
  <title>background</title>
  <rect fill="none" id="canvas_background" height="402" width="582" y="-1" x="-1"/>
 </g>
 <g>
  <title>Layer 1</title>
  <path fill="#c61b05" id="svg_3" d="m487.552,259.113l-234.667,-234.667c-4.16,-4.16 -10.923,-4.16 -15.083,0l-234.666,234.667c-2.005,2.005 -3.136,4.714 -3.136,7.552l0,192c0,4.309 2.603,8.213 6.592,9.856c3.989,1.664 8.555,0.747 11.627,-2.304l227.115,-227.136l227.115,227.115c2.048,2.048 4.779,3.136 7.552,3.136c1.365,0 2.773,-0.256 4.075,-0.811c3.989,-1.643 6.592,-5.547 6.592,-9.856l0,-192c-0.001,-2.838 -1.132,-5.547 -3.116,-7.552z"/>
 </g>
</svg>